<?xml version="1.0" encoding="UTF-8" standalone="no"?>
<!-- Created with Inkscape (http://www.inkscape.org/) -->

<svg
   width="1920"
   height="1080"
   viewBox="0 0 1920 1080"
   version="1.1"
   id="svg5"
   inkscape:version="1.2 (dc2aedaf03, 2022-05-15)"
   sodipodi:docname="colloid-wallpaper.svg"
   xmlns:inkscape="http://www.inkscape.org/namespaces/inkscape"
   xmlns:sodipodi="http://sodipodi.sourceforge.net/DTD/sodipodi-0.dtd"
   xmlns="http://www.w3.org/2000/svg"
   xmlns:svg="http://www.w3.org/2000/svg">
  <sodipodi:namedview
     id="namedview7"
     pagecolor="#ffffff"
     bordercolor="#666666"
     borderopacity="1.0"
     inkscape:pageshadow="2"
     inkscape:pageopacity="0.0"
     inkscape:pagecheckerboard="0"
     inkscape:document-units="px"
     showgrid="false"
     units="px"
     inkscape:zoom="0.086930088"
     inkscape:cx="3629.3533"
     inkscape:cy="1242.3777"
     inkscape:window-width="1368"
     inkscape:window-height="692"
     inkscape:window-x="0"
     inkscape:window-y="0"
     inkscape:window-maximized="1"
     inkscape:current-layer="layer1"
     inkscape:showpageshadow="2"
     inkscape:deskcolor="#d1d1d1" />
  <defs
     id="defs2" />
  <g
     inkscape:label="图层 1"
     inkscape:groupmode="layer"
     id="layer1">
    <g
       id="g261890">
      <rect
         style="opacity:1;fill:#ebebeb;fill-opacity:1;stroke:none;stroke-width:2;stroke-linecap:round;stroke-linejoin:round"
         id="rect261866"
         width="1920"
         height="1080"
         x="0"
         y="0"
         rx="0"
         ry="0" />
      <path
         id="path261868"
         style="opacity:1;fill:#2bbdd4;fill-opacity:1;stroke:none;stroke-width:1px;stroke-linecap:butt;stroke-linejoin:miter;stroke-opacity:1"
         d="M 6.6484375,0 C 29.003515,20.447852 79.996288,61.958836 156.53125,93.783203 277.8615,144.23412 368.47569,152.64089 420.51562,186.90625 c 123.63062,81.40381 136.91712,178.14759 241.8418,242.22461 117.14941,71.54259 227.24202,55.14133 325.98242,115.19336 82.00756,49.87539 199.38266,172.93231 351.27926,168.12109 203.2518,-6.43786 287.1004,-115.31181 384.4317,-142.8457 94.8998,-26.84607 161.0296,-25.55576 195.9492,-34.3418 V 0 Z" />
      <path
         id="path261870"
         style="opacity:1;fill:#10baa1;fill-opacity:1;stroke:none;stroke-width:1px;stroke-linecap:butt;stroke-linejoin:miter;stroke-opacity:1"
         d="m 517.83008,0 c 5.67671,45.021248 18.34024,97.008565 44.42969,149.56836 71.85455,144.75816 114.63988,148.56242 150.9082,260.80469 52.41443,162.21086 19.6903,228.96208 63.24805,277.97265 45.99474,51.75263 122.40439,94.54216 168.99414,152.24805 50.38938,62.41211 138.99044,159.51905 242.70504,182.70705 135.0187,30.1868 254.3611,-37.43703 448.4004,-45.25002 126.6867,-5.10104 222.0812,12.11278 283.4844,28.68362 V 0 Z" />
      <path
         id="path261872"
         style="opacity:1;fill:#1edf89;fill-opacity:1;stroke:none;stroke-width:1px;stroke-linecap:butt;stroke-linejoin:miter;stroke-opacity:1"
         d="m 517.83008,0 c 5.67671,45.021248 18.34024,97.008564 44.42969,149.56836 71.85455,144.75816 114.63988,148.56242 150.9082,260.80469 5.87392,18.17846 10.54716,34.98881 14.50976,50.8789 92.83776,35.94984 180.4925,34.31463 260.66211,83.07227 82.00756,49.87539 199.38266,172.93231 351.27926,168.12109 203.2518,-6.43786 287.1004,-115.31181 384.4317,-142.8457 94.8998,-26.84607 161.0296,-25.55576 195.9492,-34.3418 V 0 Z" />
      <path
         id="path261874"
         style="opacity:1;fill:#ebf976;fill-opacity:1;stroke:none;stroke-width:1px;stroke-linecap:butt;stroke-linejoin:miter;stroke-opacity:1"
         d="m 1176.4961,0 c 10.6653,25.074886 22.0667,50.677202 33.5234,74.302734 28.7048,59.193406 74.4453,182.821456 161,207.085936 96.4128,27.02807 221.7242,28.3459 310.5215,0.81055 91.3971,-28.34151 131.7649,-97.61165 180.8828,-120.51758 18.8124,-8.77305 39.3412,-12.058 57.5762,-12.82617 V 0 Z" />
      <path
         id="path261876"
         style="opacity:1;fill:#ebf976;fill-opacity:1;stroke:none;stroke-width:1px;stroke-linecap:butt;stroke-linejoin:miter;stroke-opacity:1"
         d="M 0,191.94336 V 1080 h 108.83789 c 43.67353,-37.8141 90.10812,-94.81981 95.28125,-169.45898 8.73057,-125.96684 4.32696,-141.27035 72.87891,-232.67579 C 345.55,586.4598 278.40671,428.04912 246.76172,377.33789 180.39334,270.98228 66.657667,216.26627 0,191.94336 Z" />
      <path
         id="path261878"
         style="opacity:1;fill:#10baa1;fill-opacity:1;stroke:none;stroke-width:1px;stroke-linecap:butt;stroke-linejoin:miter;stroke-opacity:1"
         d="m 284.94531,665.79492 c -2.44065,4.12271 -5.02753,8.17721 -7.94726,12.07031 -66.27396,88.36802 -64.4385,106.53042 -72.12696,221.40039 42.68431,-45.69666 71.48528,-107.00301 80.07422,-233.4707 z" />
      <path
         id="path261880"
         style="opacity:1;fill:#71ecb5;fill-opacity:1;stroke:none;stroke-width:1px;stroke-linecap:butt;stroke-linejoin:miter;stroke-opacity:1"
         d="m 3292.293,906.4082 c -82.7386,1.42421 -159.1415,42.79113 -193.2012,64.91797 -36.5219,23.72639 -105.3991,80.35213 -139.3301,108.67383 h 621.5723 c -11.5383,-12.8964 -28.0645,-30.3339 -48.6836,-49.6191 -17.0365,-0.9822 -34.1391,-3.1982 -51.502,-7.0801 -71.0701,-15.8895 -134.6806,-66.48138 -184.125,-116.84182 -1.575,-0.002 -3.1597,-0.0778 -4.7304,-0.0508 z"
         transform="translate(-2293.033)" />
      <path
         id="path261882"
         style="opacity:1;fill:#10baa1;fill-opacity:1;stroke:none;stroke-width:1px;stroke-linecap:butt;stroke-linejoin:miter;stroke-opacity:1"
         d="M 827.45312,950.40234 C 711.46838,950.3294 610.88228,1013.2447 546.29688,1080 h 583.61522 c -61.1356,-44.2552 -171.98965,-115.83594 -263.30663,-127.16406 -13.22147,-1.64016 -26.28169,-2.4255 -39.15235,-2.4336 z" />
      <path
         id="path261884"
         style="opacity:1;fill:#1edf89;fill-opacity:1;stroke:none;stroke-width:1px;stroke-linecap:butt;stroke-linejoin:miter;stroke-opacity:1"
         d="M 0,294.29492 V 1080 H 0.16796875 C 18.702146,1060.92 40.233038,1039.7602 66.84375,1015.5801 c 53.63718,-48.73816 101.03218,-76.70845 138.02734,-116.31448 7.68846,-114.86997 5.853,-133.03237 72.12696,-221.40039 2.91973,-3.8931 5.50661,-7.9476 7.94726,-12.07031 0.95746,-14.09801 1.70108,-28.88841 2.14649,-44.67773 C 292.58434,426.41024 98.368926,330.37826 0,294.29492 Z" />
      <path
         id="path261886"
         style="opacity:1;fill:#ebf976;fill-opacity:1;stroke:none;stroke-width:1px;stroke-linecap:butt;stroke-linejoin:miter;stroke-opacity:1"
         d="m 841.3457,950.83398 c -14.25508,7.44439 -26.28408,14.6434 -35.28711,20.49219 C 769.53668,995.05256 700.65948,1051.6783 666.72852,1080 h 463.18358 c -61.1356,-44.2552 -171.98965,-115.83594 -263.30663,-127.16406 -8.49848,-1.05426 -16.90205,-1.63346 -25.25977,-2.00196 z" />
      <path
         id="path261888"
         style="opacity:1;fill:#2bbdd4;fill-opacity:1;stroke:none;stroke-width:1px;stroke-linecap:butt;stroke-linejoin:miter;stroke-opacity:1"
         d="m 1003.9902,906.45898 c 49.4444,50.36044 113.0549,100.95232 184.125,116.84182 17.3629,3.8819 34.4655,6.0979 51.502,7.0801 -32.6972,-30.58205 -75.8523,-65.8788 -126.9863,-95.59965 -35.3062,-20.52113 -72.5038,-28.27279 -108.6407,-28.32227 z" />
    </g>
    <g
       id="g492922"
       transform="translate(0,1569.6311)">
      <rect
         style="opacity:1;fill:#1f1f1f;fill-opacity:1;stroke:none;stroke-width:2;stroke-linecap:round;stroke-linejoin:round"
         id="rect492898"
         width="1920"
         height="1080"
         x="0"
         y="0"
         rx="0"
         ry="0" />
      <path
         id="path492900"
         style="opacity:1;fill:#229baa;fill-opacity:1;stroke:none;stroke-width:1px;stroke-linecap:butt;stroke-linejoin:miter;stroke-opacity:1"
         d="M 6.6484375,0 C 29.003515,20.447854 79.996288,61.958842 156.53125,93.783212 277.8615,144.23414 368.47569,152.6409 420.51562,186.90627 c 123.63062,81.40381 136.91712,178.1476 241.8418,242.22463 117.14941,71.5426 227.24202,55.14134 325.98242,115.19337 82.00756,49.8754 199.38266,172.93233 351.27926,168.12111 203.2518,-6.43787 287.1004,-115.31183 384.4317,-142.84572 94.8998,-26.84607 161.0296,-25.55576 195.9492,-34.3418 V 0 Z" />
      <path
         id="path492902"
         style="opacity:1;fill:#10baa1;fill-opacity:1;stroke:none;stroke-width:1px;stroke-linecap:butt;stroke-linejoin:miter;stroke-opacity:1"
         d="m 517.83008,0 c 5.67671,45.021248 18.34024,97.008565 44.42969,149.56836 71.85455,144.75816 114.63988,148.56242 150.9082,260.80469 52.41443,162.21086 19.6903,228.96208 63.24805,277.97265 45.99474,51.75263 122.40439,94.54216 168.99414,152.24805 50.38938,62.41211 138.99044,159.51905 242.70504,182.70705 135.0187,30.1868 254.3611,-37.43703 448.4004,-45.25002 126.6867,-5.10104 222.0812,12.11278 283.4844,28.68362 V 0 Z" />
      <path
         id="path492904"
         style="opacity:1;fill:#1edf89;fill-opacity:1;stroke:none;stroke-width:1px;stroke-linecap:butt;stroke-linejoin:miter;stroke-opacity:1"
         d="m 517.83008,0 c 5.67671,45.021248 18.34024,97.008564 44.42969,149.56836 71.85455,144.75816 114.63988,148.56242 150.9082,260.80469 5.87392,18.17846 10.54716,34.98881 14.50976,50.8789 92.83776,35.94984 180.4925,34.31463 260.66211,83.07227 82.00756,49.87539 199.38266,172.93231 351.27926,168.12109 203.2518,-6.43786 287.1004,-115.31181 384.4317,-142.8457 94.8998,-26.84607 161.0296,-25.55576 195.9492,-34.3418 V 0 Z" />
      <path
         id="path492906"
         style="opacity:1;fill:#ebf976;fill-opacity:1;stroke:none;stroke-width:1px;stroke-linecap:butt;stroke-linejoin:miter;stroke-opacity:1"
         d="m 1176.4961,0 c 10.6653,25.074886 22.0667,50.677202 33.5234,74.302734 28.7048,59.193406 74.4453,182.821456 161,207.085936 96.4128,27.02807 221.7242,28.3459 310.5215,0.81055 91.3971,-28.34151 131.7649,-97.61165 180.8828,-120.51758 18.8124,-8.77305 39.3412,-12.058 57.5762,-12.82617 V 0 Z" />
      <path
         id="path492908"
         style="opacity:1;fill:#ebf976;fill-opacity:1;stroke:none;stroke-width:1px;stroke-linecap:butt;stroke-linejoin:miter;stroke-opacity:1"
         d="M 0,191.94336 V 1080 h 108.83789 c 43.67353,-37.8141 90.10812,-94.81981 95.28125,-169.45898 8.73057,-125.96684 4.32696,-141.27035 72.87891,-232.67579 C 345.55,586.4598 278.40671,428.04912 246.76172,377.33789 180.39334,270.98228 66.657667,216.26627 0,191.94336 Z" />
      <path
         id="path492910"
         style="opacity:1;fill:#10baa1;fill-opacity:1;stroke:none;stroke-width:1px;stroke-linecap:butt;stroke-linejoin:miter;stroke-opacity:1"
         d="m 284.94531,665.79492 c -2.44065,4.12271 -5.02753,8.17721 -7.94726,12.07031 -66.27396,88.36802 -64.4385,106.53042 -72.12696,221.40039 42.68431,-45.69666 71.48528,-107.00301 80.07422,-233.4707 z" />
      <path
         id="path492912"
         style="opacity:1;fill:#1edf89;fill-opacity:1;stroke:none;stroke-width:1px;stroke-linecap:butt;stroke-linejoin:miter;stroke-opacity:1"
         d="m 3292.293,2476.0391 c -82.7386,1.4242 -159.1415,42.7911 -193.2012,64.9179 -36.5219,23.7264 -105.3991,80.3522 -139.3301,108.6739 h 621.5723 c -11.5383,-12.8965 -28.0645,-30.3339 -48.6836,-49.6192 -17.0365,-0.9821 -34.1391,-3.1982 -51.502,-7.0801 -71.0701,-15.8895 -134.6806,-66.4813 -184.125,-116.8418 -1.575,-0 -3.1597,-0.078 -4.7304,-0.051 z"
         transform="translate(-2293.033,-1569.6311)" />
      <path
         id="path492914"
         style="opacity:1;fill:#10baa1;fill-opacity:1;stroke:none;stroke-width:1px;stroke-linecap:butt;stroke-linejoin:miter;stroke-opacity:1"
         d="M 827.45312,950.40234 C 711.46838,950.3294 610.88228,1013.2447 546.29688,1080 h 583.61522 c -61.1356,-44.2552 -171.98965,-115.83594 -263.30663,-127.16406 -13.22147,-1.64016 -26.28169,-2.4255 -39.15235,-2.4336 z" />
      <path
         id="path492916"
         style="opacity:1;fill:#1edf89;fill-opacity:1;stroke:none;stroke-width:1px;stroke-linecap:butt;stroke-linejoin:miter;stroke-opacity:1"
         d="M 0,294.29492 V 1080 H 0.16796875 C 18.702146,1060.92 40.233038,1039.7602 66.84375,1015.5801 c 53.63718,-48.73816 101.03218,-76.70845 138.02734,-116.31448 7.68846,-114.86997 5.853,-133.03237 72.12696,-221.40039 2.91973,-3.8931 5.50661,-7.9476 7.94726,-12.07031 0.95746,-14.09801 1.70108,-28.88841 2.14649,-44.67773 C 292.58434,426.41024 98.368926,330.37826 0,294.29492 Z" />
      <path
         id="path492918"
         style="opacity:1;fill:#ebf976;fill-opacity:1;stroke:none;stroke-width:1px;stroke-linecap:butt;stroke-linejoin:miter;stroke-opacity:1"
         d="m 841.3457,950.83398 c -14.25508,7.44439 -26.28408,14.6434 -35.28711,20.49219 C 769.53668,995.05256 700.65948,1051.6783 666.72852,1080 h 463.18358 c -61.1356,-44.2552 -171.98965,-115.83594 -263.30663,-127.16406 -8.49848,-1.05426 -16.90205,-1.63346 -25.25977,-2.00196 z" />
      <path
         id="path492920"
         style="opacity:1;fill:#229baa;fill-opacity:1;stroke:none;stroke-width:1px;stroke-linecap:butt;stroke-linejoin:miter;stroke-opacity:1"
         d="m 1003.9902,906.45907 c 49.4444,50.36045 113.0549,100.95233 184.125,116.84183 17.3629,3.8819 34.4655,6.0979 51.502,7.0801 -32.6972,-30.58205 -75.8523,-65.8788 -126.9863,-95.59965 -35.3062,-20.52114 -72.5038,-28.2728 -108.6407,-28.32228 z" />
    </g>
  </g>
</svg>
